<?xml version="1.0" encoding="utf-8"?>
<!-- Generator: Adobe Illustrator 15.0.2, SVG Export Plug-In . SVG Version: 6.00 Build 0)  -->
<!DOCTYPE svg PUBLIC "-//W3C//DTD SVG 1.1//EN" "http://www.w3.org/Graphics/SVG/1.1/DTD/svg11.dtd">
<svg version="1.1" xmlns="http://www.w3.org/2000/svg" xmlns:xlink="http://www.w3.org/1999/xlink" x="0px" y="0px" width="280px"
	 height="280px" viewBox="0 0 280 280" enable-background="new 0 0 280 280" xml:space="preserve">
<g id="Layer_2_2_">
	<rect fill="#FFFFFF" width="280" height="280"/>
</g>
<g id="Layer_1">
	<g id="Layer_2_1_">
		<g id="Layer_2" display="none">
			
				<circle display="inline" fill="#DDDDDD" stroke="#BFBFBF" stroke-width="14" stroke-miterlimit="10" cx="117.398" cy="96.059" r="53.797"/>
			
				<line display="inline" fill="none" stroke="#BFBFBF" stroke-width="14" stroke-miterlimit="10" x1="155.801" y1="133.72" x2="226.466" y2="204.387"/>
			<g display="inline" enable-background="new    ">
				<path fill="#7F7F7F" d="M231.993,206.784c0-23.397,33.161-25.239,33.161-44.771c0-9.211-7.184-17.134-21.555-17.134
					c-14.002,0-22.662,5.896-29.479,15.108l-9.212-9.949c8.844-11.607,22.478-18.792,39.979-18.792
					c22.477,0,36.109,12.712,36.109,28.558c0,27.817-35.559,30.213-35.559,48.27c0,2.947,1.658,6.633,4.791,8.844l-11.238,4.975
					C234.02,217.654,231.993,212.495,231.993,206.784z M232.73,247.686c0-5.526,4.604-10.134,10.133-10.134
					c5.527,0,10.133,4.606,10.133,10.134c0,5.526-4.605,10.133-10.133,10.133C237.335,257.818,232.73,253.212,232.73,247.686z"/>
			</g>
		</g>
		<circle fill="#DDDDDD" stroke="#BFBFBF" stroke-width="14" stroke-miterlimit="10" cx="115.597" cy="96.467" r="50.522"/>
		
			<line fill="none" stroke="#BFBFBF" stroke-width="14" stroke-miterlimit="10" x1="150.561" y1="131.433" x2="216.887" y2="197.757"/>
	</g>
	<g id="Layer_3">
		<g enable-background="new    ">
			<path fill="#BFBFBF" d="M206.193,93.153c0-17.686,25.065-19.078,25.065-33.839c0-6.963-5.432-12.951-16.294-12.951
				c-10.584,0-17.128,4.457-22.279,11.419l-6.963-7.52c6.685-8.774,16.988-14.204,30.219-14.204
				c16.988,0,27.295,9.609,27.295,21.585c0,21.028-26.879,22.837-26.879,36.485c0,2.229,1.254,5.014,3.623,6.685l-8.494,3.76
				C207.725,101.368,206.193,97.47,206.193,93.153z M206.751,124.067c0-4.177,3.479-7.658,7.658-7.658
				c4.177,0,7.659,3.481,7.659,7.658c0,4.179-3.482,7.66-7.659,7.66C210.23,131.728,206.751,128.246,206.751,124.067z"/>
		</g>
	</g>
	<g>
		<g>
			<polyline fill="none" stroke="#DDDDDD" stroke-width="14" stroke-miterlimit="10" points="273,255 273,273 255,273 			"/>
			
				<line fill="none" stroke="#DDDDDD" stroke-width="14" stroke-miterlimit="10" stroke-dasharray="40.5882,27.0588" x1="227.941" y1="273" x2="38.529" y2="273"/>
			<polyline fill="none" stroke="#DDDDDD" stroke-width="14" stroke-miterlimit="10" points="25,273 7,273 7,255 			"/>
			
				<line fill="none" stroke="#DDDDDD" stroke-width="14" stroke-miterlimit="10" stroke-dasharray="40.5882,27.0588" x1="7" y1="227.941" x2="7" y2="38.529"/>
			<polyline fill="none" stroke="#DDDDDD" stroke-width="14" stroke-miterlimit="10" points="7,25 7,7 25,7 			"/>
			
				<line fill="none" stroke="#DDDDDD" stroke-width="14" stroke-miterlimit="10" stroke-dasharray="40.5882,27.0588" x1="52.059" y1="7" x2="241.471" y2="7"/>
			<polyline fill="none" stroke="#DDDDDD" stroke-width="14" stroke-miterlimit="10" points="255,7 273,7 273,25 			"/>
			
				<line fill="none" stroke="#DDDDDD" stroke-width="14" stroke-miterlimit="10" stroke-dasharray="40.5882,27.0588" x1="273" y1="52.059" x2="273" y2="241.471"/>
		</g>
	</g>
	<text transform="matrix(1 0 0 1 27.4902 243)" fill="#7F7F7F" font-family="'ProximaNova-Regular'" font-size="32">photo not found</text>
</g>
</svg>
